<svg width="70" height="71" viewBox="0 0 70 71" fill="none" xmlns="http://www.w3.org/2000/svg">
<g clip-path="url(#clip0_135_6053)">
<g clip-path="url(#clip1_135_6053)">
<mask id="mask0_135_6053" style="mask-type:luminance" maskUnits="userSpaceOnUse" x="0" y="0" width="70" height="71">
<path d="M69.9996 0.709961H0V70.76H69.9996V0.709961Z" fill="white"/>
</mask>
<g mask="url(#mask0_135_6053)">
<path d="M69.3893 42.3109C69.0615 43.9777 68.6389 45.5965 68.0917 47.1831C66.7523 51.0646 64.7899 54.601 62.2078 57.7914C58.9852 61.7735 55.0616 64.8811 50.4693 67.145C47.3596 68.6776 44.0903 69.7125 40.6669 70.2672C38.3964 70.6354 36.1122 70.7867 33.816 70.6979C29.0493 70.5138 24.4902 69.4402 20.1823 67.3805C12.7688 63.8367 7.24985 58.3623 3.63291 50.9856C2.02342 47.703 0.995194 44.237 0.492583 40.6141C0.235834 38.7634 0.107601 36.9042 0.163201 35.0385C0.403199 26.9853 3.03285 19.8053 8.14774 13.5726C12.3888 8.40461 17.725 4.79702 24.0562 2.66246C26.69 1.77444 29.3969 1.2285 32.1682 1.00475C38.7839 0.470657 45.0539 1.70553 50.9721 4.70303C53.9395 6.20593 56.6361 8.10474 59.0473 10.3973C64.0531 15.1563 67.3726 20.8997 69.0247 27.6033C69.586 29.8823 69.8876 32.2006 69.9749 34.547C70.0717 37.15 69.8644 39.7296 69.3893 42.3109ZM53.0534 21.9582C53.0413 21.9587 53.0287 21.9591 53.0166 21.9596C53.0232 21.9765 53.0297 21.9933 53.0585 22.0366C53.8664 22.6239 54.6748 23.2111 55.4787 23.7954C55.1645 24.7663 54.8564 25.7172 54.5487 26.6679C55.3682 26.1352 56.1409 25.5827 56.9034 25.0177C57.0189 24.9324 57.0754 24.952 57.1757 25.0257C57.9418 25.5883 58.7129 26.1444 59.5183 26.7286C59.4981 26.6373 59.4911 26.5845 59.4749 26.5346C59.198 25.6693 58.9257 24.8025 58.6362 23.9413C58.5939 23.8148 58.6156 23.7768 58.7139 23.707C59.3287 23.2712 59.9369 22.8271 60.5456 22.3832C60.7115 22.2623 60.8709 22.1325 61.0661 21.9814C60.1689 21.9814 59.3292 21.9814 58.489 21.9814C57.9968 21.9814 57.9973 21.9812 57.8445 21.5084C57.5812 20.6946 57.3174 19.8812 57.0532 19.0654C57.0249 19.0792 57.0017 19.0829 56.9987 19.0929C56.7082 19.9894 56.4142 20.8849 56.1348 21.7848C56.0864 21.9408 56.0178 21.9859 55.8605 21.9849C54.928 21.9785 53.9955 21.9828 53.0534 21.9582ZM24.8649 17.4344C24.8768 17.4359 24.8887 17.4373 24.9007 17.4388C24.8981 17.4188 24.8954 17.3988 24.8729 17.3464C24.5673 16.403 24.2618 15.4597 23.9555 14.5142C24.782 13.9143 25.6063 13.316 26.4524 12.7019C25.475 12.7019 24.5313 12.6977 23.5877 12.7059C23.4188 12.7074 23.346 12.6622 23.2933 12.4933C23.0123 11.593 22.7143 10.698 22.4138 9.7752C22.3802 9.8336 22.3539 9.86558 22.3419 9.90224C22.0594 10.7652 21.7715 11.6265 21.5031 12.4938C21.4496 12.6667 21.3735 12.7067 21.2076 12.7054C20.275 12.6982 19.3424 12.7019 18.3815 12.7019C18.423 12.7484 18.4405 12.7767 18.4655 12.7949C19.2089 13.3355 19.9494 13.8804 20.7009 14.4096C20.8272 14.4986 20.8307 14.5557 20.7864 14.6883C20.5169 15.4972 20.2596 16.3101 19.9995 17.1221C19.9673 17.2224 19.9421 17.3249 19.9029 17.4645C20.7277 16.8611 21.5084 16.2869 22.2957 15.7217C22.3421 15.6885 22.4588 15.7023 22.5127 15.7388C22.8147 15.9428 23.1066 16.1617 23.4034 16.3733C23.8879 16.7187 24.3736 17.0624 24.8649 17.4344ZM15.5854 26.7139C15.5974 26.7154 15.6093 26.7169 15.6212 26.7183C15.6186 26.6983 15.616 26.6783 15.5935 26.6258C15.2877 25.6832 14.9821 24.7405 14.6754 23.7948C15.5012 23.1952 16.3255 22.5966 17.1728 21.9814C16.189 21.9814 15.2384 21.9773 14.2878 21.9853C14.1239 21.9867 14.0565 21.9312 14.0156 21.7778C13.9444 21.5105 13.8519 21.2487 13.7658 20.9854C13.5582 20.3506 13.3491 19.7163 13.1342 19.0622C13.099 19.1061 13.0765 19.1228 13.0694 19.1446C12.7831 20.0223 12.4914 20.8983 12.2191 21.7804C12.1689 21.9429 12.1028 21.9856 11.9451 21.9844C11.0636 21.9781 10.182 21.9807 9.30047 21.9826C9.22961 21.9827 9.1588 22.0002 9.10908 21.994C9.1122 21.9878 9.11533 21.9816 9.11846 21.9754C9.10817 21.9863 9.09788 21.9971 9.12315 22.0184C9.89133 22.58 10.6561 23.1464 11.4314 23.6983C11.5486 23.7817 11.5521 23.8312 11.5098 23.9551C11.3381 24.4578 11.1843 24.9666 11.0217 25.4724C10.8892 25.8846 10.7537 26.2958 10.6039 26.7553C11.4275 26.1554 12.2046 25.5932 12.9757 25.0229C13.0878 24.94 13.1523 24.9412 13.2629 25.0284C13.5481 25.2534 13.8476 25.4606 14.1438 25.6715C14.6212 26.0112 15.1006 26.3482 15.5854 26.7139ZM37.5116 64.7207C37.5283 64.7268 37.5452 64.7328 37.562 64.7384C37.5533 64.7066 37.5445 64.6748 37.5274 64.6052C37.2494 63.7388 36.9738 62.8719 36.6903 62.0075C36.6478 61.8779 36.6496 61.8007 36.7774 61.7175C37.034 61.5511 37.2766 61.363 37.5242 61.1824C38.0423 60.8047 38.56 60.4259 39.1334 60.0074C38.9903 60.0074 38.9112 60.0074 38.8322 60.0074C37.9753 60.0074 37.1183 60.0008 36.2615 60.0124C36.085 60.0144 36.0089 59.9514 35.9622 59.796C35.8471 59.4133 35.7264 59.0315 35.603 58.6512C35.4354 58.1348 35.2633 57.6199 35.0797 57.0631C35.0416 57.1721 35.0187 57.2331 34.9985 57.2951C34.7293 58.1212 34.4548 58.9453 34.196 59.7744C34.1383 59.9594 34.0496 60.0164 33.8613 60.0114C33.3828 59.9983 32.9037 60.0074 32.4248 60.0074C31.9768 60.0074 31.5289 60.0074 31.0244 60.0074C31.7058 60.5066 32.3347 60.9736 32.9701 61.4311C33.5331 61.837 33.5295 61.83 33.3157 62.478C33.0773 63.2002 32.8528 63.9274 32.5944 64.6632C32.5928 64.6905 32.5911 64.7182 32.5893 64.7454C32.6115 64.7298 32.6336 64.7147 32.6883 64.6854C33.4856 64.109 34.2828 63.5326 35.078 62.9581C35.2109 63.054 35.3448 63.1503 35.4788 63.2471C36.15 63.7308 36.8212 64.2149 37.5116 64.7207ZM29.1739 31.4143C28.9303 31.4143 28.686 31.4257 28.4432 31.4111C28.2177 31.3974 28.1517 31.4979 28.1519 31.7069C28.1552 34.454 28.1553 37.2013 28.1517 39.9485C28.1515 40.1721 28.2282 40.2564 28.462 40.254C29.4784 40.2433 30.4951 40.2572 31.5115 40.2447C31.8272 40.2409 32.1476 40.2083 32.4565 40.1439C33.8348 39.8563 34.6317 38.8641 34.6317 37.4615C34.6317 36.3358 34.6358 35.21 34.6296 34.0842C34.6273 33.6728 34.5575 33.2717 34.36 32.9018C33.8176 31.8858 32.8993 31.4909 31.8195 31.4322C30.9567 31.3852 30.0896 31.4173 29.1739 31.4143ZM43.8102 31.4146C43.6478 31.4087 43.5176 31.4134 43.5181 31.6453C43.5237 34.4341 43.5232 37.2228 43.5186 40.0115C43.5183 40.2077 43.6006 40.255 43.7765 40.2516C44.1796 40.2438 44.5833 40.2381 44.9859 40.2534C45.2172 40.2622 45.2938 40.1855 45.2914 39.9514C45.2811 38.9183 45.2916 37.885 45.2831 36.8519C45.2814 36.6439 45.3461 36.5622 45.5569 36.5734C45.7997 36.5864 46.0449 36.5902 46.2872 36.5724C46.5045 36.5563 46.6136 36.637 46.7018 36.8379C47.1693 37.9032 47.6555 38.9602 48.1277 40.0235C48.2023 40.1916 48.2971 40.2636 48.4869 40.2536C48.7968 40.2372 49.1082 40.2492 49.419 40.2492C49.6238 40.2492 49.8286 40.2492 50.1102 40.2492C49.487 38.9469 48.8951 37.7098 48.2954 36.4567C48.4177 36.4012 48.5148 36.3568 48.6122 36.313C49.1617 36.0656 49.5592 35.6711 49.7865 35.1086C49.9931 34.5975 50.0171 34.0738 49.9324 33.5331C49.7395 32.3015 48.7619 31.4366 47.5122 31.4252C46.2944 31.4141 45.0765 31.4176 43.8102 31.4146ZM21.6432 39.8652C22.595 40.4123 23.6033 40.4748 24.6459 40.2052C25.8912 39.8832 26.638 38.962 26.7641 37.7067C26.8335 37.016 26.7821 36.3132 26.7876 35.6158C26.789 35.4441 26.6866 35.4072 26.5439 35.4073C25.5858 35.408 24.6276 35.409 23.6695 35.4064C23.477 35.4059 23.3958 35.4949 23.3983 35.6832C23.4023 35.9857 23.4042 36.2884 23.3977 36.5908C23.3934 36.7877 23.4591 36.8814 23.6747 36.874C24.0608 36.8607 24.4482 36.861 24.834 36.8781C24.9098 36.8814 25.0436 36.9858 25.0439 37.044C25.0452 37.3352 25.0501 37.6363 24.981 37.9159C24.8385 38.4929 24.3937 38.7417 23.8431 38.8171C22.8876 38.9478 22.0233 38.3092 22.0351 37.3186C22.0473 36.2933 22.0346 35.2679 22.0389 34.2425C22.0421 33.4672 22.6633 32.8496 23.4435 32.8357C24.3544 32.8194 24.9688 33.3352 25.0104 34.1611C25.0189 34.33 25.0788 34.4035 25.252 34.401C25.6806 34.395 26.1094 34.3924 26.5379 34.4021C26.7255 34.4064 26.7899 34.3343 26.7895 34.1516C26.7878 33.273 26.4436 32.5543 25.7533 32.0231C24.7405 31.2437 23.5895 31.144 22.4003 31.4744C21.098 31.8362 20.2959 32.8692 20.2689 34.1824C20.2462 35.2829 20.2431 36.3848 20.2705 37.4851C20.2956 38.4981 20.7539 39.2923 21.6432 39.8652ZM41.2953 36.3384C41.5008 36.1428 41.7371 35.9706 41.9059 35.7473C42.387 35.1106 42.4863 34.3819 42.3661 33.6053C42.1767 32.3802 41.3007 31.5216 40.0893 31.4405C38.793 31.3537 37.4877 31.3999 36.1863 31.3871C35.9921 31.3851 35.9027 31.4591 35.9031 31.6714C35.9082 34.4448 35.9078 37.2181 35.9038 39.9915C35.9035 40.1926 35.9847 40.2559 36.1753 40.2517C36.57 40.2432 36.9652 40.2495 37.3602 40.2491C37.6718 40.2487 37.6801 40.2411 37.6803 39.9196C37.681 38.9699 37.6858 38.0202 37.6763 37.0706C37.6743 36.8706 37.731 36.8098 37.9331 36.8151C38.4707 36.829 39.0088 36.8207 39.5466 36.8196C40.1598 36.8183 40.7376 36.6828 41.2953 36.3384ZM24.0569 58.7753C24.0244 58.6598 23.992 58.5438 23.9595 58.4283C24.7829 57.8282 25.6024 57.2306 26.4218 56.633C25.4492 56.5891 24.508 56.5866 23.5669 56.5916C23.4178 56.5921 23.343 56.5649 23.2912 56.3974C23.013 55.4997 22.7133 54.6091 22.4128 53.6908C22.3821 53.7518 22.3554 53.7916 22.3411 53.8355C22.0608 54.6903 21.7763 55.5441 21.5079 56.4025C21.4607 56.5538 21.3984 56.5941 21.2488 56.5926C20.543 56.585 19.837 56.5891 19.1311 56.5891C18.8846 56.5891 18.6381 56.5891 18.3814 56.5891C18.3974 56.6355 18.398 56.6567 18.4084 56.6642C19.1661 57.2139 19.923 57.7646 20.6843 58.3093C20.801 58.3925 20.8455 58.4535 20.7862 58.6109C20.6356 59.0103 20.518 59.4223 20.3874 59.8298C20.2286 60.3251 20.07 60.8203 19.8901 61.3821C20.7645 60.7472 21.5803 60.1546 22.3986 59.56C23.2287 60.1607 24.0541 60.7583 24.915 61.3816C24.6244 60.4885 24.3512 59.6493 24.0569 58.7753ZM14.2979 51.1424C14.7331 51.4531 15.1683 51.7643 15.6336 52.0966C15.3051 51.088 14.9899 50.1195 14.6746 49.1511C15.5029 48.548 16.3231 47.9507 17.1433 47.3535C17.1329 47.3388 17.1225 47.3242 17.1121 47.3096C16.3221 47.3096 15.5321 47.3096 14.7421 47.3096C14.056 47.3096 14.0668 47.3063 13.8645 46.653C13.6339 45.9086 13.3816 45.1709 13.1364 44.4228C13.1061 44.4463 13.0854 44.4538 13.0812 44.4667C12.8393 45.2061 12.5992 45.9461 12.3576 46.6856C12.2922 46.8858 12.2791 47.164 12.14 47.2624C11.9922 47.3672 11.7233 47.3076 11.5072 47.3084C10.7049 47.3114 9.90262 47.3096 9.09208 47.3096C9.10555 47.3447 9.10666 47.3637 9.11639 47.3708C9.88033 47.9257 10.6437 48.4813 11.4107 49.0319C11.5284 49.1163 11.5621 49.1838 11.506 49.3377C11.3205 49.8462 11.1609 50.3641 10.9952 50.8796C10.8717 51.264 10.7543 51.6498 10.6141 52.0996C11.4876 51.4652 12.3032 50.8721 13.1201 50.2784C13.5091 50.5618 13.8902 50.8395 14.2979 51.1424ZM46.8638 60.2111C47.1626 59.9917 47.4615 59.7729 47.7528 59.559C48.58 60.1587 49.3901 60.7462 50.2264 61.3524C50.2264 61.2772 50.2327 61.2505 50.2255 61.2283C49.9412 60.3498 49.6613 59.4692 49.3642 58.5948C49.3197 58.4641 49.3293 58.4082 49.4375 58.331C50.0185 57.919 50.5949 57.5004 51.1713 57.0818C51.3781 56.9315 51.5803 56.7742 51.8259 56.5891C50.8203 56.5891 49.8791 56.583 48.9384 56.5946C48.7518 56.5966 48.6819 56.5331 48.6302 56.3647C48.4091 55.6445 48.1755 54.9278 47.9443 54.2107C47.8889 54.0392 47.825 53.8703 47.7494 53.6554C47.4473 54.5895 47.1575 55.467 46.8831 56.3485C46.8236 56.5402 46.7379 56.5977 46.5358 56.5951C45.6069 56.5815 44.6777 56.5891 43.6701 56.5891C44.5536 57.2326 45.3778 57.8327 46.1989 58.4304C45.8842 59.4007 45.5744 60.3558 45.2645 61.311C45.2796 61.3201 45.2947 61.3292 45.3098 61.3383C45.8161 60.9656 46.3224 60.5934 46.8638 60.2111ZM56.2811 46.6799C56.2337 46.8187 56.1671 46.9545 56.1439 47.0972C56.1141 47.2772 56.0264 47.3195 55.8564 47.3134C55.5039 47.3007 55.1509 47.3096 54.7984 47.3096C54.2073 47.3096 53.6157 47.3096 52.949 47.3096C53.8361 47.955 54.6612 48.5555 55.4792 49.1506C55.163 50.1242 54.8549 51.0737 54.5467 52.0235C54.5603 52.0336 54.5734 52.0442 54.5871 52.0547C55.4051 51.4617 56.2231 50.8683 57.035 50.2796C57.8591 50.8773 58.6695 51.4657 59.5062 52.0724C59.5062 51.9912 59.5148 51.9554 59.5052 51.9256C59.2182 51.0483 58.9262 50.1726 58.6468 49.293C58.6262 49.2281 58.665 49.1024 58.7189 49.062C59.2157 48.6899 59.7236 48.3319 60.2259 47.9667C60.5078 47.7619 60.7851 47.5512 61.1094 47.3096C60.0947 47.3096 59.1461 47.3069 58.198 47.3123C58.0432 47.3132 57.9761 47.2806 57.9262 47.1105C57.7562 46.5293 57.5514 45.9582 57.3623 45.3825C57.2569 45.0626 57.1561 44.7412 57.037 44.3704C56.7733 45.1673 56.5292 45.9031 56.2811 46.6799ZM34.1377 12.9403C34.4161 12.7313 34.6909 12.5169 34.9766 12.3184C35.0236 12.2857 35.1383 12.2949 35.1887 12.3309C35.7007 12.6966 36.2049 13.0734 36.7135 13.444C36.9877 13.6437 37.2662 13.8376 37.5892 14.0671C37.2782 13.1069 36.9928 12.2055 36.69 11.31C36.6385 11.1579 36.675 11.0802 36.7862 11.0001C37.1825 10.7151 37.5785 10.4295 37.9738 10.143C38.3455 9.87354 38.7163 9.60273 39.1464 9.28969C38.0582 9.28969 37.0467 9.28969 36.0383 9.28969C35.7187 8.30799 35.405 7.34393 35.0778 6.33857C34.7494 7.34645 34.4359 8.30894 34.1135 9.29822C33.1057 9.29822 32.09 9.29822 31.0177 9.29822C31.885 9.92872 32.7019 10.5226 33.5217 11.1185C33.2077 12.0866 32.8953 13.05 32.5648 14.0689C33.1151 13.6741 33.6114 13.3179 34.1377 12.9403ZM58.2293 39.1942C58.8924 38.7123 59.5571 38.232 60.2183 37.7471C60.357 37.6454 60.4619 37.5883 60.6248 37.7373C60.8305 37.9261 61.0761 38.0716 61.3036 38.2368C61.8377 38.6239 62.3712 39.0114 62.9467 39.4292C62.6184 38.4177 62.3057 37.4551 61.9864 36.4725C62.7999 35.8812 63.6194 35.2854 64.4853 34.656C63.4162 34.656 62.405 34.656 61.3959 34.656C61.0766 33.6735 60.7625 32.7079 60.4432 31.7265C60.4125 31.773 60.3867 31.7983 60.3771 31.8287C60.1013 32.6939 59.8219 33.5581 59.5561 34.4264C59.4986 34.6134 59.4048 34.6598 59.2182 34.6561C58.5793 34.6433 57.9408 34.6512 57.3018 34.6512C57.0058 34.6512 56.7097 34.6512 56.3658 34.6512C57.1621 35.2265 57.9095 35.7714 58.6635 36.3074C58.8259 36.423 58.8874 36.5372 58.8047 36.7337C58.7089 36.9601 58.6367 37.1967 58.5611 37.4309C58.3518 38.0754 58.146 38.721 57.9236 39.4143C58.0432 39.329 58.1218 39.2729 58.2293 39.1942ZM8.14815 36.4708C7.99675 36.9599 7.84797 37.4498 7.69325 37.9379C7.54059 38.4197 7.38188 38.8995 7.21062 39.4269C8.02716 38.8343 8.80094 38.2813 9.56216 37.7117C9.69656 37.6112 9.78028 37.6359 9.888 37.7147C10.1487 37.9055 10.409 38.0969 10.6701 38.2872C11.1743 38.6545 11.6789 39.0212 12.2027 39.4023C12.2027 39.3419 12.2092 39.3151 12.2018 39.2928C11.9189 38.4395 11.6395 37.5849 11.3474 36.7347C11.2801 36.5388 11.3188 36.4297 11.4915 36.3081C12.251 35.7735 12.9986 35.222 13.7856 34.6512C12.7915 34.6512 11.8438 34.6489 10.8961 34.6535C10.7451 34.6543 10.6722 34.6288 10.6218 34.4554C10.4531 33.874 10.2485 33.303 10.0595 32.7275C9.95028 32.3953 9.84453 32.0619 9.72374 31.6872C9.39104 32.7093 9.07529 33.6795 8.75429 34.6655C7.73354 34.6655 6.72531 34.6655 5.68535 34.6655C6.51808 35.274 7.3194 35.8595 8.14815 36.4708ZM51.6807 12.8028C51.7044 12.7744 51.7281 12.7459 51.7644 12.7019C50.7971 12.7019 49.8578 12.6995 48.9183 12.7045C48.7742 12.7052 48.7032 12.6739 48.6579 12.5179C48.5044 11.9899 48.3288 11.4683 48.1577 10.9455C48.0306 10.5573 47.8974 10.1711 47.7519 9.7395C47.4195 10.7601 47.1035 11.7307 46.7916 12.6883C45.7566 12.6883 44.7469 12.6883 43.6857 12.6883C44.5492 13.3162 45.3753 13.9169 46.1988 14.5158C45.8848 15.4848 45.5761 16.4375 45.2617 17.4079C45.3213 17.4 45.3416 17.4034 45.3533 17.3949C46.1106 16.8457 46.8689 16.2978 47.6216 15.7423C47.715 15.6733 47.7708 15.6492 47.8739 15.7268C48.3106 16.056 48.7542 16.3761 49.1969 16.6974C49.5323 16.9408 49.87 17.1809 50.2475 17.4519C50.2217 17.3511 50.2122 17.3037 50.1975 17.258C49.9199 16.3921 49.6465 15.5249 49.3582 14.6627C49.3176 14.5412 49.3278 14.4999 49.431 14.4262C50.1726 13.8969 50.907 13.3575 51.6807 12.8028Z" fill="black"/>
<path d="M0.00391048 36.4666C0.00391507 35.6888 0.0039151 34.9362 0.0039151 34.1836C0.0148597 34.1836 0.0258048 34.1836 0.0367494 34.1836C0.0367494 35.2692 0.0367494 36.3547 0.0367494 37.4403C0.0258017 37.4406 0.0148539 37.4409 0.00390625 37.4413C0.00390625 37.1248 0.00390625 36.8083 0.00391048 36.4666Z" fill="#B9B9B9"/>
<path d="M35.4024 0.753572C34.8095 0.753451 34.2417 0.753451 33.674 0.753451C33.6739 0.743837 33.6739 0.734223 33.6738 0.724609C34.6071 0.724609 35.5403 0.724609 36.4736 0.724609C36.4739 0.734304 36.4742 0.743998 36.4745 0.753693C36.1256 0.753693 35.7766 0.753693 35.4024 0.753572Z" fill="#AEAEAE"/>
<path d="M29.1998 31.4142C30.0902 31.4172 30.9573 31.3851 31.8201 31.432C32.9 31.4908 33.8182 31.8857 34.3606 32.9017C34.5581 33.2716 34.6279 33.6727 34.6302 34.0841C34.6364 35.2098 34.6323 36.3356 34.6323 37.4614C34.6323 38.864 33.8354 39.8561 32.4571 40.1438C32.1482 40.2082 31.8278 40.2408 31.5121 40.2446C30.4958 40.2571 29.479 40.2432 28.4626 40.2538C28.2288 40.2563 28.1521 40.172 28.1523 39.9484C28.1559 37.2011 28.1558 34.454 28.1525 31.7067C28.1523 31.4977 28.2183 31.3973 28.4438 31.411C28.6866 31.4256 28.9309 31.4142 29.1998 31.4142ZM30.9898 32.9366C30.7128 32.9366 30.4355 32.9447 30.159 32.9336C29.9943 32.927 29.9354 32.9833 29.9395 33.1487C29.9483 33.5094 29.9422 33.8705 29.9422 34.2315C29.9422 35.6416 29.9419 37.0518 29.9425 38.462C29.9426 38.594 29.9122 38.7409 30.1297 38.7377C30.6164 38.7305 31.1041 38.7511 31.59 38.7288C32.2628 38.698 32.8116 38.1743 32.8244 37.5164C32.8465 36.3844 32.8432 35.2514 32.8251 34.1192C32.8161 33.5577 32.4109 33.0922 31.864 32.9872C31.596 32.9357 31.3151 32.9513 30.9898 32.9366Z" fill="#FCFCFC"/>
<path d="M43.8358 31.4144C45.0779 31.4173 46.2958 31.4139 47.5136 31.425C48.7633 31.4363 49.7409 32.3012 49.9338 33.5328C50.0185 34.0736 49.9945 34.5972 49.7879 35.1083C49.5606 35.6708 49.1631 36.0653 48.6137 36.3127C48.5163 36.3565 48.4191 36.4009 48.2968 36.4564C48.8964 37.7096 49.4884 38.9466 50.1116 40.2489C49.83 40.2489 49.6252 40.2489 49.4204 40.2489C49.1096 40.2489 48.7982 40.237 48.4883 40.2533C48.2985 40.2633 48.2037 40.1914 48.1291 40.0233C47.6569 38.96 47.1707 37.9029 46.7032 36.8376C46.615 36.6368 46.5059 36.556 46.2886 36.5721C46.0463 36.59 45.8011 36.5861 45.5582 36.5732C45.3475 36.5619 45.2828 36.6437 45.2845 36.8517C45.293 37.8848 45.2824 38.9181 45.2928 39.9511C45.2952 40.1853 45.2186 40.2619 44.9873 40.2532C44.5847 40.2379 44.1809 40.2436 43.7779 40.2514C43.602 40.2548 43.5197 40.2075 43.52 40.0113C43.5246 37.2225 43.5251 34.4338 43.5195 31.6451C43.5191 31.4131 43.6492 31.4084 43.8358 31.4144ZM46.3221 35.2201C46.6073 35.2162 46.8934 35.2247 47.1776 35.2056C47.739 35.168 48.1612 34.7602 48.2119 34.2257C48.2691 33.6229 47.9341 33.0697 47.3566 32.9972C46.72 32.9172 46.0691 32.9484 45.4244 32.9439C45.3794 32.9436 45.2951 33.0475 45.2943 33.1039C45.285 33.7505 45.2837 34.3973 45.296 35.0438C45.2972 35.1035 45.4032 35.2075 45.466 35.2119C45.7334 35.2308 46.003 35.22 46.3221 35.2201Z" fill="#FEFEFE"/>
<path d="M21.6283 39.8554C20.755 39.292 20.2967 38.4977 20.2715 37.4847C20.2442 36.3844 20.2472 35.2825 20.2699 34.182C20.297 32.8688 21.0991 31.8358 22.4014 31.474C23.5906 31.1437 24.7416 31.2434 25.7544 32.0227C26.4446 32.5539 26.7889 33.2726 26.7906 34.1513C26.7909 34.3339 26.7265 34.406 26.5389 34.4018C26.1105 34.392 25.6816 34.3947 25.2531 34.4007C25.0799 34.4031 25.02 34.3297 25.0115 34.1607C24.9699 33.3348 24.3555 32.8191 23.4446 32.8353C22.6644 32.8492 22.0431 33.4668 22.0399 34.2422C22.0357 35.2675 22.0483 36.293 22.0361 37.3182C22.0244 38.3088 22.8886 38.9474 23.8441 38.8167C24.3947 38.7413 24.8395 38.4925 24.982 37.9156C25.0511 37.6359 25.0462 37.3348 25.0449 37.0436C25.0447 36.9854 24.9108 36.8811 24.8351 36.8777C24.4492 36.8607 24.0619 36.8603 23.6757 36.8736C23.4601 36.881 23.3944 36.7873 23.3987 36.5905C23.4052 36.2881 23.4033 35.9853 23.3994 35.6828C23.3968 35.4945 23.4781 35.4056 23.6706 35.4061C24.6287 35.4086 25.5868 35.4076 26.5449 35.4069C26.6876 35.4068 26.7901 35.4437 26.7887 35.6155C26.7831 36.3128 26.8346 37.0156 26.7651 37.7064C26.6391 38.9617 25.8922 39.8829 24.647 40.2048C23.6043 40.4744 22.596 40.4119 21.6283 39.8554Z" fill="#FEFEFE"/>
<path d="M41.2813 36.3489C40.7388 36.6825 40.161 36.8181 39.5478 36.8194C39.0099 36.8204 38.4718 36.8288 37.9343 36.8148C37.7322 36.8096 37.6755 36.8703 37.6775 37.0704C37.687 38.0199 37.6822 38.9697 37.6815 39.9194C37.6813 40.2409 37.673 40.2485 37.3613 40.2488C36.9663 40.2493 36.5712 40.243 36.1764 40.2515C35.9858 40.2556 35.9047 40.1924 35.905 39.9913C35.9089 37.2179 35.9093 34.4445 35.9043 31.6711C35.9039 31.4588 35.9933 31.3849 36.1875 31.3868C37.4889 31.3997 38.7942 31.3534 40.0905 31.4402C41.3019 31.5213 42.1779 32.38 42.3673 33.605C42.4874 34.3816 42.3882 35.1104 41.9071 35.747C41.7383 35.9703 41.502 36.1426 41.2813 36.3489ZM40.6482 34.3055C40.6496 33.4186 40.1722 32.9362 39.2928 32.9361C38.8391 32.9361 38.3853 32.943 37.932 32.9327C37.7517 32.9286 37.6753 32.9757 37.6779 33.1705C37.6871 33.834 37.6866 34.4979 37.6782 35.1614C37.6758 35.3568 37.7592 35.4048 37.9365 35.4015C38.3816 35.3934 38.8269 35.3973 39.2721 35.3992C39.9558 35.402 40.5188 35.0885 40.6482 34.3055Z" fill="#FEFEFE"/>
<path d="M24.0688 58.7921C24.3525 59.649 24.6257 60.4882 24.9164 61.3813C24.0555 60.758 23.2301 60.1603 22.4 59.5597C21.5817 60.1543 20.7658 60.7469 19.8915 61.3818C20.0714 60.82 20.23 60.3248 20.3888 59.8295C20.5194 59.422 20.637 59.01 20.7876 58.6106C20.8468 58.4532 20.8023 58.3922 20.6857 58.309C19.9244 57.7643 19.1674 57.2136 18.4098 56.6639C18.3994 56.6563 18.3988 56.6352 18.3828 56.5888C18.6395 56.5888 18.886 56.5888 19.1324 56.5888C19.8384 56.5888 20.5443 56.5847 21.2502 56.5923C21.3998 56.5938 21.462 56.5535 21.5093 56.4022C21.7777 55.5438 22.0621 54.69 22.3424 53.8352C22.3568 53.7913 22.3835 53.7515 22.4142 53.6904C22.7146 54.6088 23.0144 55.4994 23.2926 56.3971C23.3444 56.5645 23.4192 56.5918 23.5682 56.5913C24.5094 56.5862 25.4506 56.5888 26.4232 56.6326C25.6038 57.2302 24.7843 57.8279 23.9609 58.428C23.9933 58.5435 24.0257 58.6595 24.0688 58.7921Z" fill="white"/>
<path d="M14.2843 51.1299C13.8898 50.8396 13.5087 50.5618 13.1198 50.2784C12.303 50.8721 11.4873 51.4652 10.6138 52.0997C10.754 51.6498 10.8714 51.264 10.9949 50.8797C11.1606 50.3641 11.3202 49.8462 11.5057 49.3378C11.5618 49.1838 11.5281 49.1164 11.4105 49.0319C10.6434 48.4814 9.88005 47.9257 9.1161 47.3708C9.10637 47.3637 9.10526 47.3447 9.0918 47.3096C9.90234 47.3096 10.7047 47.3114 11.5069 47.3085C11.723 47.3077 11.9918 47.3672 12.1398 47.2625C12.2788 47.164 12.2919 46.8858 12.3573 46.6856C12.5988 45.9461 12.839 45.2061 13.081 44.4667C13.0852 44.4539 13.1058 44.4463 13.1361 44.4229C13.3813 45.1709 13.6336 45.9086 13.8642 46.6531C14.0665 47.3063 14.0557 47.3096 14.7418 47.3096C15.5318 47.3096 16.3218 47.3096 17.1117 47.3096C17.1222 47.3243 17.1326 47.3389 17.143 47.3535C16.3228 47.9507 15.5027 48.548 14.6744 49.1512C14.9896 50.1195 15.3049 51.088 15.6332 52.0966C15.168 51.7643 14.7328 51.4531 14.2843 51.1299Z" fill="white"/>
<path d="M46.8461 60.216C46.3222 60.5932 45.816 60.9654 45.3097 61.3381C45.2946 61.329 45.2795 61.3199 45.2644 61.3108C45.5742 60.3557 45.8841 59.4005 46.1988 58.4302C45.3777 57.8326 44.5535 57.2324 43.6699 56.5889C44.6777 56.5889 45.6069 56.5813 46.5358 56.595C46.7378 56.5975 46.8235 56.54 46.883 56.3483C47.1574 55.4668 47.4472 54.5893 47.7493 53.6553C47.8249 53.8701 47.8888 54.0391 47.9441 54.2105C48.1754 54.9277 48.409 55.6443 48.6302 56.3645C48.6818 56.5329 48.7517 56.5965 48.9383 56.5944C49.879 56.5829 50.8202 56.5889 51.8258 56.5889C51.5802 56.774 51.378 56.9313 51.1712 57.0816C50.5948 57.5002 50.0184 57.9188 49.4374 58.3308C49.3292 58.408 49.3196 58.464 49.3641 58.5946C49.6612 59.4691 49.9411 60.3496 50.2254 61.2281C50.2326 61.2503 50.2263 61.2771 50.2263 61.3522C49.39 60.746 48.5798 60.1585 47.7527 59.5588C47.4614 59.7727 47.1625 59.9915 46.8461 60.216Z" fill="white"/>
<path d="M56.2838 46.6591C56.5294 45.9028 56.7735 45.167 57.0372 44.3701C57.1562 44.7409 57.2571 45.0623 57.3625 45.3822C57.5516 45.9579 57.7564 46.529 57.9263 47.1102C57.9763 47.2803 58.0433 47.3129 58.1982 47.312C59.1463 47.3066 60.0949 47.3093 61.1096 47.3093C60.7853 47.5509 60.508 47.7616 60.226 47.9664C59.7237 48.3316 59.2159 48.6896 58.7191 49.0617C58.6652 49.102 58.6263 49.2278 58.647 49.2927C58.9264 50.1723 59.2184 51.048 59.5054 51.9253C59.515 51.9551 59.5064 51.9909 59.5064 52.0721C58.6697 51.4654 57.8593 50.877 57.0352 50.2793C56.2233 50.868 55.4053 51.4614 54.5872 52.0544C54.5736 52.0438 54.5605 52.0333 54.5469 52.0232C54.855 51.0734 55.1632 50.1239 55.4794 49.1503C54.6614 48.5552 53.8363 47.9547 52.9492 47.3093C53.6159 47.3093 54.2075 47.3093 54.7986 47.3093C55.1511 47.3093 55.5041 47.3004 55.8566 47.3131C56.0266 47.3193 56.1143 47.2769 56.1441 47.0969C56.1673 46.9542 56.2339 46.8184 56.2838 46.6591Z" fill="white"/>
<path d="M34.1227 12.9514C33.6113 13.3182 33.115 13.6744 32.5647 14.0692C32.8952 13.0503 33.2076 12.0869 33.5216 11.1188C32.7018 10.5229 31.8849 9.92902 31.0176 9.29852C32.0899 9.29852 33.1056 9.29852 34.1134 9.29852C34.4358 8.30924 34.7493 7.34675 35.0777 6.33887C35.4049 7.34423 35.7186 8.30829 36.0382 9.28999C37.0466 9.28999 38.0581 9.28999 39.1463 9.28999C38.7162 9.60303 38.3454 9.87385 37.9737 10.1433C37.5784 10.4298 37.1824 10.7154 36.7861 11.0004C36.6749 11.0805 36.6384 11.1582 36.6899 11.3103C36.9927 12.2058 37.2781 13.1072 37.5891 14.0674C37.2661 13.8379 36.9876 13.644 36.7134 13.4443C36.2048 13.0737 35.7006 12.6969 35.1886 12.3312C35.1382 12.2952 35.0235 12.286 34.9765 12.3187C34.6908 12.5172 34.416 12.7316 34.1227 12.9514Z" fill="white"/>
<path d="M58.216 39.2055C58.1232 39.2729 58.0445 39.329 57.925 39.4144C58.1474 38.721 58.3532 38.0755 58.5625 37.431C58.6381 37.1967 58.7103 36.9601 58.8061 36.7337C58.8888 36.5373 58.8273 36.423 58.6649 36.3074C57.9109 35.7714 57.1635 35.2265 56.3672 34.6512C56.7111 34.6512 57.0072 34.6512 57.3032 34.6512C57.9422 34.6512 58.5811 34.6433 59.2196 34.6561C59.4062 34.6598 59.5 34.6134 59.5575 34.4265C59.8233 33.5582 60.1027 32.6939 60.3785 31.8288C60.3881 31.7984 60.4138 31.7731 60.4446 31.7266C60.7638 32.7079 61.078 33.6735 61.3973 34.6561C62.4064 34.6561 63.4176 34.6561 64.4867 34.6561C63.6208 35.2854 62.8013 35.8812 61.9878 36.4726C62.3071 37.4551 62.6197 38.4177 62.9481 39.4293C62.3726 39.0115 61.8391 38.6239 61.305 38.2368C61.0775 38.0717 60.8319 37.9261 60.6262 37.7373C60.4633 37.5883 60.3584 37.6454 60.2197 37.7471C59.5585 38.232 58.8938 38.7123 58.216 39.2055Z" fill="white"/>
<path d="M8.13462 36.4581C7.31959 35.8597 6.51828 35.2743 5.68555 34.6658C6.7255 34.6658 7.73374 34.6658 8.75448 34.6658C9.07548 33.6797 9.39124 32.7096 9.72394 31.6875C9.84472 32.0622 9.95048 32.3956 10.0597 32.7278C10.2487 33.3033 10.4533 33.8743 10.622 34.4557C10.6724 34.6291 10.7453 34.6545 10.8963 34.6538C11.844 34.6491 12.7917 34.6514 13.7858 34.6514C12.9988 35.2222 12.2512 35.7737 11.4917 36.3084C11.319 36.4299 11.2803 36.5391 11.3476 36.735C11.6396 37.5852 11.9191 38.4397 12.202 39.2931C12.2094 39.3154 12.2029 39.3422 12.2029 39.4026C11.6791 39.0215 11.1745 38.6548 10.6703 38.2874C10.4092 38.0972 10.1489 37.9058 9.88819 37.715C9.78047 37.6362 9.69675 37.6114 9.56235 37.712C8.80113 38.2816 8.02735 38.8345 7.21081 39.4272C7.38208 38.8997 7.54079 38.4199 7.69345 37.9382C7.84817 37.4501 7.99694 36.9602 8.13462 36.4581Z" fill="white"/>
<path d="M37.4933 64.6979C36.8221 64.2143 36.1509 63.7301 35.4797 63.2465C35.3458 63.1496 35.2119 63.0533 35.0789 62.9575C34.2838 63.5319 33.4865 64.1083 32.6652 64.6797C32.6352 64.6671 32.6292 64.6596 32.6233 64.652C32.8538 63.9268 33.0782 63.1996 33.3167 62.4774C33.5305 61.8293 33.534 61.8364 32.9711 61.4304C32.3356 60.973 31.7068 60.506 31.0254 60.0067C31.5298 60.0067 31.9778 60.0067 32.4258 60.0067C32.9046 60.0067 33.3837 59.9976 33.8622 60.0108C34.0506 60.0158 34.1392 59.9588 34.1969 59.7737C34.4557 58.9446 34.7302 58.1206 34.9994 57.2945C35.0197 57.2325 35.0426 57.1714 35.0806 57.0625C35.2642 57.6193 35.4364 58.1342 35.6039 58.6506C35.7273 59.0309 35.8481 59.4126 35.9631 59.7954C36.0098 59.9507 36.0859 60.0138 36.2625 60.0118C37.1192 60.0002 37.9762 60.0067 38.8332 60.0067C38.9121 60.0067 38.9912 60.0067 39.1343 60.0067C38.561 60.4253 38.0433 60.804 37.5251 61.1818C37.2776 61.3623 37.0349 61.5504 36.7783 61.7169C36.6505 61.8001 36.6487 61.8772 36.6912 62.0068C36.9748 62.8712 37.2503 63.7382 37.5212 64.6369C37.5072 64.6787 37.5002 64.6883 37.4933 64.6979Z" fill="white"/>
<path d="M9.08789 22.0098C9.15875 22.0005 9.22955 21.983 9.30041 21.9829C10.182 21.981 11.0636 21.9784 11.9451 21.9847C12.1028 21.9859 12.1689 21.9432 12.2191 21.7807C12.4913 20.8986 12.783 20.0226 13.0694 19.1449C13.0765 19.1231 13.0989 19.1064 13.1341 19.0625C13.3491 19.7166 13.5581 20.3509 13.7658 20.9857C13.8518 21.249 13.9444 21.5108 14.0155 21.7781C14.0564 21.9315 14.1239 21.9871 14.2878 21.9856C15.2383 21.9776 16.1889 21.9817 17.1728 21.9817C16.3255 22.5969 15.5011 23.1956 14.6753 23.7951C14.982 24.7408 15.2877 25.6835 15.5944 26.6488C15.5954 26.6716 15.5791 26.6867 15.5791 26.6867C15.1006 26.3485 14.6212 26.0115 14.1437 25.6718C13.8475 25.4609 13.5481 25.2537 13.2629 25.0287C13.1523 24.9415 13.0878 24.9403 12.9757 25.0232C12.2046 25.5935 11.4274 26.1557 10.6039 26.7556C10.7537 26.2961 10.8892 25.8849 11.0217 25.4727C11.1842 24.9669 11.338 24.4581 11.5097 23.9554C11.552 23.8315 11.5486 23.782 11.4313 23.6986C10.6561 23.1467 9.89127 22.5803 9.10786 22.0132C9.09258 22.0078 9.08789 22.0098 9.08789 22.0098Z" fill="white"/>
<path d="M24.86 17.4071C24.3749 17.0626 23.8892 16.7189 23.4047 16.3735C23.1078 16.1618 22.8159 15.943 22.514 15.739C22.4601 15.7025 22.3433 15.6886 22.297 15.7219C21.5097 16.2871 20.729 16.8613 19.9042 17.4647C19.9433 17.3251 19.9685 17.2226 20.0007 17.1223C20.2609 16.3103 20.5182 15.4974 20.7877 14.6885C20.8319 14.5559 20.8285 14.4988 20.7022 14.4098C19.9506 13.8806 19.2102 13.3357 18.4668 12.7951C18.4418 12.7769 18.4242 12.7486 18.3828 12.7021C19.3436 12.7021 20.2763 12.6984 21.2089 12.7056C21.3748 12.7068 21.4508 12.6669 21.5043 12.494C21.7727 11.6267 22.0607 10.7654 22.3431 9.90243C22.3551 9.86576 22.3815 9.83379 22.415 9.77539C22.7156 10.6982 23.0136 11.5932 23.2946 12.4935C23.3473 12.6624 23.4201 12.7076 23.589 12.706C24.5325 12.6979 25.4763 12.7021 26.4536 12.7021C25.6076 13.3162 24.7833 13.9145 23.9568 14.5144C24.263 15.4599 24.5686 16.4032 24.8752 17.3692C24.8762 17.392 24.86 17.4071 24.86 17.4071Z" fill="white"/>
<path d="M51.6619 12.8118C50.9069 13.3573 50.1725 13.8967 49.4309 14.426C49.3276 14.4997 49.3175 14.541 49.3581 14.6624C49.6464 15.5247 49.9198 16.3919 50.1974 17.2578C50.212 17.3035 50.2216 17.3509 50.2474 17.4517C49.8698 17.1807 49.5322 16.9405 49.1968 16.6972C48.7541 16.3759 48.3105 16.0558 47.8737 15.7266C47.7707 15.6489 47.7149 15.6731 47.6215 15.742C46.8688 16.2975 46.1105 16.8454 45.3532 17.3947C45.3415 17.4032 45.3212 17.3998 45.2615 17.4077C45.576 16.4372 45.8846 15.4846 46.1987 14.5155C45.3752 13.9167 44.5491 13.316 43.6855 12.688C44.7467 12.688 45.7564 12.688 46.7915 12.688C47.1033 11.7305 47.4194 10.7598 47.7517 9.73926C47.8972 10.1709 48.0305 10.5571 48.1576 10.9453C48.3287 11.4681 48.5042 11.9897 48.6577 12.5177C48.7031 12.6736 48.774 12.705 48.9181 12.7043C49.8577 12.6993 50.7975 12.7017 51.7642 12.7017C51.7279 12.7457 51.7042 12.7742 51.6619 12.8118Z" fill="white"/>
<path d="M53.0623 21.9835C53.9953 21.9828 54.9277 21.9785 55.8602 21.9849C56.0176 21.9859 56.0862 21.9408 56.1346 21.7848C56.414 20.8849 56.708 19.9894 56.9985 19.0929C57.0015 19.0829 57.0247 19.0792 57.0529 19.0654C57.3172 19.8812 57.581 20.6946 57.8442 21.5084C57.997 21.9812 57.9965 21.9814 58.4887 21.9814C59.3289 21.9814 60.1686 21.9814 61.0658 21.9814C60.8706 22.1325 60.7113 22.2623 60.5454 22.3832C59.9366 22.8271 59.3284 23.2712 58.7137 23.707C58.6153 23.7768 58.5936 23.8148 58.636 23.9413C58.9255 24.8025 59.1978 25.6693 59.4747 26.5346C59.4908 26.5845 59.4979 26.6373 59.5181 26.7286C58.7127 26.1444 57.9416 25.5884 57.1755 25.0257C57.0751 24.9521 57.0186 24.9324 56.9032 25.0177C56.1406 25.5827 55.368 26.1352 54.5485 26.6679C54.8561 25.7172 55.1643 24.7663 55.4785 23.7954C54.6746 23.2111 53.8661 22.6239 53.0537 22.0167C53.0492 21.9968 53.0623 21.9835 53.0623 21.9835Z" fill="white"/>
<path d="M32.6484 64.687C32.6341 64.7142 32.612 64.7293 32.5898 64.745C32.5916 64.7177 32.5933 64.69 32.6089 64.6572C32.6288 64.6597 32.6347 64.6673 32.6484 64.687Z" fill="white"/>
<path d="M37.525 64.6562C37.5451 64.6744 37.5538 64.7062 37.5626 64.7379C37.5458 64.7324 37.5289 64.7264 37.5025 64.7092C37.4999 64.6885 37.5068 64.6789 37.525 64.6562Z" fill="white"/>
<path d="M15.6045 26.665C15.6161 26.6786 15.6187 26.6986 15.6213 26.7186C15.6094 26.7171 15.5975 26.7157 15.5824 26.7004C15.5793 26.6867 15.5955 26.6715 15.6045 26.665Z" fill="white"/>
<path d="M53.0438 22.003C53.0307 21.9928 53.0241 21.976 53.0176 21.9592C53.0297 21.9587 53.0423 21.9582 53.0589 21.9704C53.0635 21.983 53.0504 21.9964 53.0438 22.003Z" fill="white"/>
<path d="M9.08984 22.008C9.09761 21.9973 9.1079 21.9865 9.11819 21.9756C9.11506 21.9818 9.11193 21.988 9.09822 22.002C9.08768 22.0097 9.09237 22.0077 9.08984 22.008Z" fill="white"/>
<path d="M24.8838 17.3848C24.8953 17.3983 24.8979 17.4183 24.9005 17.4383C24.8886 17.4368 24.8767 17.4353 24.8617 17.4201C24.8586 17.4063 24.8748 17.3913 24.8838 17.3848Z" fill="white"/>
<path d="M31.0152 32.9361C31.3153 32.9509 31.5962 32.9352 31.8642 32.9867C32.411 33.0917 32.8163 33.5572 32.8253 34.1187C32.8434 35.2509 32.8467 36.3839 32.8246 37.5159C32.8117 38.1738 32.2629 38.6975 31.5902 38.7283C31.1043 38.7506 30.6166 38.73 30.1299 38.7372C29.9124 38.7405 29.9428 38.5936 29.9427 38.4615C29.9421 37.0513 29.9423 35.6412 29.9423 34.231C29.9423 33.87 29.9485 33.509 29.9396 33.1482C29.9356 32.9828 29.9945 32.9266 30.1591 32.9331C30.4357 32.9442 30.713 32.9361 31.0152 32.9361Z" fill="black"/>
<path d="M46.297 35.2199C46.003 35.2199 45.7335 35.2307 45.4661 35.2118C45.4032 35.2073 45.2972 35.1034 45.2961 35.0436C45.2838 34.3971 45.285 33.7503 45.2943 33.1037C45.2951 33.0473 45.3795 32.9434 45.4244 32.9437C46.0692 32.9483 46.7201 32.917 47.3566 32.997C47.9341 33.0696 48.2691 33.6227 48.212 34.2255C48.1612 34.76 47.7391 35.1678 47.1776 35.2055C46.8935 35.2245 46.6074 35.216 46.297 35.2199Z" fill="#010101"/>
<path d="M40.646 34.3277C40.5187 35.0886 39.9558 35.4021 39.272 35.3993C38.8268 35.3975 38.3814 35.3935 37.9364 35.4017C37.7591 35.4049 37.6757 35.357 37.6781 35.1615C37.6864 34.498 37.6869 33.8342 37.6778 33.1706C37.6751 32.9759 37.7516 32.9288 37.9318 32.9329C38.3852 32.9431 38.839 32.9362 39.2926 32.9362C40.1721 32.9363 40.6495 33.4187 40.646 34.3277Z" fill="#030303"/>
</g>
</g>
</g>
<defs>
<clipPath id="clip0_135_6053">
<rect width="70" height="70.05" fill="white" transform="translate(0 0.709961)"/>
</clipPath>
<clipPath id="clip1_135_6053">
<rect width="69.9996" height="70.05" fill="white" transform="translate(0 0.709961)"/>
</clipPath>
</defs>
</svg>
