<svg width="231" height="32" viewBox="0 0 231 32" fill="none" xmlns="http://www.w3.org/2000/svg">
<path d="M27.6138 31H21.2729V5.93066H12.4336L11.6987 19.0322C11.2788 26.8638 8.78027 31.2729 2.7334 31.2729C1.70459 31.2729 0.864746 31.126 0.444824 30.979V25.436C0.73877 25.499 1.30566 25.604 1.85156 25.604C4.66504 25.604 5.63086 23.1685 5.86182 18.6123L6.76465 0.702637H27.6138V31ZM46.7622 0.177734C55.7275 0.177734 61.3755 6.20361 61.3755 15.8618C61.3755 25.499 55.7275 31.5249 46.7622 31.5249C37.7759 31.5249 32.1489 25.499 32.1489 15.8618C32.1489 6.20361 37.7759 0.177734 46.7622 0.177734ZM46.7622 5.46875C41.8071 5.46875 38.6157 9.5 38.6157 15.8618C38.6157 22.2026 41.7861 26.2129 46.7622 26.2129C51.7173 26.2129 54.8877 22.2026 54.8877 15.8618C54.8877 9.5 51.7173 5.46875 46.7622 5.46875ZM72.2515 31H65.8896V0.702637H85.416V5.95166H72.2515V31ZM101.772 0.177734C110.737 0.177734 116.385 6.20361 116.385 15.8618C116.385 25.499 110.737 31.5249 101.772 31.5249C92.7856 31.5249 87.1587 25.499 87.1587 15.8618C87.1587 6.20361 92.7856 0.177734 101.772 0.177734ZM101.772 5.46875C96.8169 5.46875 93.6255 9.5 93.6255 15.8618C93.6255 22.2026 96.7959 26.2129 101.772 26.2129C106.727 26.2129 109.897 22.2026 109.897 15.8618C109.897 9.5 106.727 5.46875 101.772 5.46875ZM133.014 31H126.673V5.93066H117.918V0.702637H141.791V5.93066H133.014V31ZM165.831 31V10.5078H165.579L151.827 31H145.717V0.702637H152.037V21.2158H152.289L166.041 0.702637H172.151V31H165.831ZM203.645 31H197.325V5.95166H183.993V31H177.631V0.702637H203.645V31ZM224.641 31V6.51855H224.515L216.789 11.8516V6.14062L224.62 0.702637H230.919V31H224.641Z" fill="white"/>
</svg>
